# File created by Blade
# Date/Time:  Wed Jan 21 14:37:15 2015
# Frame Rate: 120.000 fps
#------------------------------------------------------
:FULLY-SPECIFIED
:DEGREES
599
root 18.630320 35.518983 -22.071278 -172.608162 -1.618889 -178.240884
Spine -22.352093 -17.219134 7.169281
Head 7.380020 10.729595 2.012205
LeftShoulder 108.796070 -77.204067 -64.459905
LeftArm 44.741350 39.373933 -101.249355
LeftForeArm 38.712331 -0.000000 70.281778
LeftHand -3.434447 -0.000000 -9.125833
LeftHandThumb1 -26.253704 0.000000 33.147579
RightShoulder 10.784316 3.033549 5.431363
RightArm 48.791421 -13.910713 57.061688
RightForeArm 34.980287 -0.000000 132.058815
RightHand 4.081707 -0.000000 -4.063170
RightHandThumb1 -24.326973 -0.000000 -32.862282
LeftUpLeg 0.638389 13.282828 1.899728
LeftLeg -6.380470 -0.000000 0.000000
LeftFoot -20.370587 29.156478 -11.821031
LeftToeBase 27.011652 -0.000000 -0.000000
RightUpLeg -0.024037 -9.179943 1.747559
RightLeg -3.865333 -0.000000 0.000000
RightFoot -20.188858 -25.410328 14.747501
RightToeBase 23.556310 -0.000000 -0.000000
600
root 18.631728 35.519246 -22.066949 -172.596589 -1.612161 -178.241084
Spine -22.386791 -17.218269 7.185590
Head 7.378090 10.764448 1.986388
LeftShoulder 109.303439 -77.172827 -64.876743
LeftArm 44.624111 39.329027 -101.277581
LeftForeArm 38.838049 0.000000 70.480919
LeftHand -3.476644 -0.000000 -9.195980
LeftHandThumb1 -26.253704 0.000000 33.147579
RightShoulder 10.788532 3.049273 5.442797
RightArm 48.797581 -13.884730 57.126763
RightForeArm 34.942817 -0.000000 131.997964
RightHand 4.189258 -0.000000 -3.944004
RightHandThumb1 -24.326973 -0.000000 -32.862282
LeftUpLeg 0.614863 13.299728 1.895878
LeftLeg -6.371105 -0.000000 0.000000
LeftFoot -20.363130 29.161630 -11.801157
LeftToeBase 27.026564 -0.000000 -0.000000
RightUpLeg -0.041799 -9.166208 1.750639
RightLeg -3.870012 -0.000000 0.000000
RightFoot -20.171335 -25.404389 14.779328
RightToeBase 23.410479 -0.000000 -0.000000
601
root 18.634258 35.519533 -22.062588 -172.592859 -1.601281 -178.236844
Spine -22.404689 -17.223520 7.191825
Head 7.364196 10.764156 1.982572
LeftShoulder 110.944207 -77.119641 -66.414359
LeftArm 44.128561 39.196365 -101.559277
LeftForeArm 38.868156 -0.000000 70.797943
LeftHand -3.534654 0.000000 -9.654259
LeftHandThumb1 -26.253704 0.000000 33.147579
RightShoulder 10.785935 3.111376 5.475420
RightArm 48.796986 -13.897570 57.164994
RightForeArm 34.880979 -0.000000 131.947346
RightHand 4.193314 -0.000000 -3.890064
RightHandThumb1 -24.326973 -0.000000 -32.862282
LeftUpLeg 0.604426 13.310636 1.900506
LeftLeg -6.368455 -0.000000 0.000000
LeftFoot -20.361193 29.151985 -11.805242
LeftToeBase 27.034584 -0.000000 -0.000000
RightUpLeg -0.054744 -9.152440 1.759013
RightLeg -3.864836 -0.000000 0.000000
RightFoot -20.177694 -25.424054 14.717653
RightToeBase 23.601516 -0.000000 -0.000000
602
root 18.636073 35.520254 -22.058444 -172.589529 -1.582904 -178.237654
Spine -22.425317 -17.213742 7.186850
Head 7.354476 10.788011 2.018387
LeftShoulder 110.662460 -77.163423 -66.143670
LeftArm 44.270352 39.299010 -101.402671
LeftForeArm 38.896658 -0.000000 70.930444
LeftHand -3.587614 -0.000000 -9.723764
LeftHandThumb1 -26.253704 0.000000 33.147579
RightShoulder 10.781265 3.108401 5.508863
RightArm 48.843204 -13.870694 57.157409
RightForeArm 34.880298 -0.000000 131.891583
RightHand 4.266201 -0.000000 -3.834412
RightHandThumb1 -24.326973 -0.000000 -32.862282
LeftUpLeg 0.596996 13.332249 1.898005
LeftLeg -6.369937 -0.000000 0.000000
LeftFoot -20.352624 29.151410 -11.812475
LeftToeBase 27.023236 -0.000000 -0.000000
RightUpLeg -0.068093 -9.142624 1.761168
RightLeg -3.863605 -0.000000 0.000000
RightFoot -20.174463 -25.415370 14.735043
RightToeBase 23.527794 -0.000000 -0.000000
603
root 18.637530 35.520656 -22.054454 -172.594883 -1.570674 -178.238067
Spine -22.440055 -17.219209 7.189618
Head 7.363617 10.800639 2.021346
LeftShoulder 110.043787 -77.241296 -65.555719
LeftArm 44.512554 39.430113 -101.196919
LeftForeArm 38.957268 -0.000000 70.994130
LeftHand -3.583396 -0.000000 -9.682038
LeftHandThumb1 -26.253704 0.000000 33.147579
RightShoulder 10.809346 3.189495 5.546759
RightArm 48.793127 -13.893248 57.168265
RightForeArm 34.844161 0.000000 131.876212
RightHand 4.085177 0.000000 -3.873975
RightHandThumb1 -24.326973 -0.000000 -32.862282
LeftUpLeg 0.596690 13.339763 1.899287
LeftLeg -6.368839 -0.000000 0.000000
LeftFoot -20.356365 29.150110 -11.833415
LeftToeBase 27.003819 -0.000000 -0.000000
RightUpLeg -0.068523 -9.131457 1.760637
RightLeg -3.866213 -0.000000 0.000000
RightFoot -20.159676 -25.406181 14.741639
RightToeBase 23.511789 -0.000000 -0.000000
604
root 18.639181 35.520998 -22.050867 -172.589457 -1.555476 -178.230273
Spine -22.468177 -17.204885 7.200293
Head 7.367363 10.800578 2.032898
LeftShoulder 110.133456 -77.262326 -65.645246
LeftArm 44.524910 39.465956 -101.149570
LeftForeArm 39.027318 0.000000 71.105256
LeftHand -3.461508 -0.000000 -9.839575
LeftHandThumb1 -26.253704 0.000000 33.147579
RightShoulder 10.805868 3.178748 5.554214
RightArm 48.842768 -13.893289 57.137223
RightForeArm 34.868098 -0.000000 131.848110
RightHand 4.055986 -0.000000 -3.862206
RightHandThumb1 -24.326973 -0.000000 -32.862282
LeftUpLeg 0.585447 13.350670 1.906162
LeftLeg -6.366368 -0.000000 0.000000
LeftFoot -20.353635 29.159128 -11.830802
LeftToeBase 26.851819 -0.000000 -0.000000
RightUpLeg -0.081239 -9.138670 1.770473
RightLeg -3.870458 -0.000000 0.000000
RightFoot -20.143262 -25.352078 14.811773
RightToeBase 23.408996 -0.000000 -0.000000
605
root 18.641063 35.520785 -22.047476 -172.587991 -1.541680 -178.226758
Spine -22.492770 -17.188545 7.203642
Head 7.385487 10.803549 2.036745
LeftShoulder 109.546760 -77.297550 -65.049504
LeftArm 44.735804 39.534453 -100.954152
LeftForeArm 39.102731 -0.000000 71.151616
LeftHand -3.227703 0.000000 -9.622007
LeftHandThumb1 -26.253704 0.000000 33.147579
RightShoulder 10.813670 3.180512 5.554934
RightArm 48.861700 -13.904673 57.121188
RightForeArm 34.837933 -0.000000 131.849881
RightHand 4.005297 0.000000 -3.912683
RightHandThumb1 -24.326973 -0.000000 -32.862282
LeftUpLeg 0.577339 13.355254 1.909610
LeftLeg -6.359346 -0.000000 0.000000
LeftFoot -20.353406 29.164756 -11.815598
LeftToeBase 27.016611 -0.000000 -0.000000
RightUpLeg -0.087585 -9.133168 1.776511
RightLeg -3.871187 -0.000000 0.000000
RightFoot -20.137693 -25.354118 14.733829
RightToeBase 23.526330 -0.000000 -0.000000
